<mxfile host="app.diagrams.net" modified="2023-02-25T15:19:51.272Z" agent="5.0 (Windows NT 10.0; Win64; x64) AppleWebKit/537.36 (KHTML, like Gecko) Chrome/110.0.0.0 Safari/537.36" etag="rLYOx6lD9J8Ior5vFow3" version="20.8.23" type="github">
  <diagram name="Sayfa -1" id="4oQVlhpLzs1-wzWC_D67">
    <mxGraphModel dx="2261" dy="796" grid="1" gridSize="10" guides="1" tooltips="1" connect="1" arrows="1" fold="1" page="1" pageScale="1" pageWidth="827" pageHeight="1169" math="0" shadow="0">
      <root>
        <mxCell id="0" />
        <mxCell id="1" parent="0" />
        <mxCell id="wDwBU1hdnLldlFssTzNE-1" value="&lt;div style=&quot;&quot;&gt;&lt;span style=&quot;background-color: initial; font-size: 23px;&quot;&gt;JVM&lt;/span&gt;&lt;/div&gt;" style="rounded=0;whiteSpace=wrap;html=1;align=center;imageVerticalAlign=top;flipV=0;flipH=1;verticalAlign=top;" parent="1" vertex="1">
          <mxGeometry x="-690" y="80" width="1033" height="590" as="geometry" />
        </mxCell>
        <mxCell id="wDwBU1hdnLldlFssTzNE-2" value="" style="rounded=0;whiteSpace=wrap;html=1;fontSize=23;" parent="1" vertex="1">
          <mxGeometry x="-648.5" y="240" width="950" height="200" as="geometry" />
        </mxCell>
      </root>
    </mxGraphModel>
  </diagram>
</mxfile>
